<svg id="visual" viewBox="0 0 900 600" width="900" height="600" xmlns="http://www.w3.org/2000/svg" xmlns:xlink="http://www.w3.org/1999/xlink" version="1.1"><g transform="translate(504.24594183000363 341.3216487999637)"><path d="M98.2 -187C109.6 -145.5 88.9 -88.4 95.2 -50.5C101.6 -12.7 134.9 5.7 134.4 20.3C133.8 34.9 99.4 45.6 79.7 69.9C60 94.2 54.9 132 36.5 148.5C18 165 -13.8 160.2 -31.7 140.2C-49.6 120.2 -53.5 85 -83.3 64.5C-113.2 43.9 -168.9 38.1 -204.8 9.1C-240.8 -20 -256.8 -72.3 -228.2 -91.4C-199.6 -110.6 -126.3 -96.5 -80.8 -122.4C-35.3 -148.3 -17.7 -214.1 12.9 -234.2C43.4 -254.2 86.9 -228.5 98.2 -187" fill="#ff00db"></path></g></svg>